<?xml version="1.0" standalone="no"?>
<!DOCTYPE svg PUBLIC "-//W3C//DTD SVG 20010904//EN"
 "http://www.w3.org/TR/2001/REC-SVG-20010904/DTD/svg10.dtd">
<svg version="1.0" xmlns="http://www.w3.org/2000/svg"
 width="641.000000pt" height="641.000000pt" viewBox="0 0 641.000000 641.000000"
 preserveAspectRatio="xMidYMid meet">
<metadata>
Created by potrace 1.14, written by Peter Selinger 2001-2017
</metadata>
<g transform="translate(0.000000,641.000000) scale(0.100000,-0.100000)"
fill="#000000" stroke="none">
<path d="M6214 5328 c-16 -12 -34 -27 -40 -33 -20 -19 -118 -102 -459 -390
-472 -398 -446 -375 -441 -394 3 -9 8 -31 11 -49 4 -27 26 -129 40 -192 2 -8
15 -71 29 -140 14 -69 35 -168 46 -220 11 -52 22 -104 24 -115 2 -11 7 -37 11
-57 l7 -38 97 83 c52 45 109 93 125 107 16 14 37 32 46 40 8 8 45 40 80 70 36
30 70 60 77 66 6 6 67 58 134 115 67 57 134 115 149 129 15 14 77 67 139 119
61 52 111 97 111 101 0 3 -14 80 -31 170 -16 91 -34 188 -39 215 -8 43 -16 88
-45 240 -3 17 -12 66 -20 109 -8 43 -16 81 -18 83 -2 2 -17 -7 -33 -19z"/>
<path d="M1889 4326 c-2 -2 -53 -7 -114 -10 -60 -4 -112 -9 -115 -11 -3 -1
-41 -6 -84 -10 -43 -4 -86 -8 -96 -10 -9 -2 -52 -6 -96 -10 -43 -4 -95 -8
-114 -10 -118 -13 -598 -21 -845 -15 -44 1 -87 1 -95 1 -12 -1 -15 -13 -13
-58 2 -57 15 -605 17 -694 l1 -46 60 52 c82 69 136 106 236 158 123 64 308
131 419 151 179 31 281 40 440 39 316 -2 511 -42 726 -152 202 -101 389 -285
461 -451 50 -115 75 -190 87 -262 24 -142 32 -225 41 -438 3 -69 8 -161 11
-205 2 -44 7 -120 9 -170 3 -49 7 -121 10 -160 2 -38 7 -110 10 -160 3 -49 8
-119 11 -155 2 -36 6 -105 9 -155 3 -49 7 -115 10 -145 2 -30 7 -104 11 -165
3 -60 8 -112 9 -114 5 -5 876 -3 881 2 4 4 12 62 16 120 1 15 3 27 5 27 1 0
53 -24 115 -54 203 -97 287 -127 393 -141 60 -8 280 -8 315 0 14 2 41 8 60 11
219 38 365 140 515 359 57 83 120 213 134 275 9 44 13 78 28 230 10 100 10
485 0 583 -36 359 -184 702 -385 891 -74 69 -98 89 -187 148 -153 102 -275
155 -455 198 -74 18 -127 23 -240 24 -80 0 -167 -3 -193 -7 -55 -9 -304 -74
-419 -111 l-77 -24 -38 47 c-117 146 -368 367 -514 452 -122 71 -314 136 -458
154 -30 4 -63 9 -75 12 -24 5 -422 14 -427 9z m2264 -1075 c258 -91 413 -305
472 -646 21 -122 24 -169 24 -320 1 -134 -2 -164 -21 -250 -56 -258 -288 -376
-626 -319 -106 18 -243 55 -261 70 -4 4 -5 12 -15 119 -4 39 -9 88 -11 110 -3
22 -7 65 -9 95 -12 137 -18 197 -21 220 -2 14 -7 61 -10 105 -4 44 -8 91 -10
105 -2 14 -7 63 -10 110 -4 47 -8 96 -10 110 -4 27 -12 109 -20 210 -3 36 -8
85 -11 110 -16 127 -16 127 30 146 136 55 390 68 509 25z"/>
<path d="M1298 3785 c-3 -2 -29 -6 -148 -19 -174 -20 -473 -143 -625 -258
-152 -115 -276 -257 -363 -418 -39 -71 -105 -249 -116 -315 -3 -16 -8 -41 -11
-55 -3 -14 -8 -50 -11 -80 -3 -30 -7 -68 -10 -85 -6 -46 -5 -254 1 -315 35
-326 138 -549 358 -772 124 -126 256 -214 422 -283 90 -37 244 -81 320 -91 28
-3 52 -8 55 -9 3 -2 34 -6 70 -10 36 -3 83 -8 105 -10 48 -5 343 -6 402 -1
250 21 379 41 539 81 71 19 179 50 240 71 60 20 123 42 141 48 17 6 33 17 35
26 2 8 4 157 3 330 l0 315 -58 1 c-43 0 -61 -4 -74 -18 -9 -10 -20 -18 -25
-18 -5 0 -24 -11 -41 -24 -59 -44 -205 -127 -268 -152 -65 -27 -200 -59 -285
-69 -107 -13 -134 -14 -259 -15 -234 -2 -359 21 -502 91 -178 86 -286 219
-322 395 -10 47 -15 98 -13 115 l4 29 942 2 941 3 -1 105 c-2 136 -13 399 -18
425 -2 11 -7 42 -10 69 -24 175 -66 290 -155 426 -50 77 -48 74 -134 162 -214
217 -505 317 -939 323 -103 1 -189 1 -190 0z m271 -524 c129 -21 233 -96 291
-210 32 -64 59 -183 57 -251 l-2 -45 -520 0 c-286 -1 -526 1 -532 3 -28 9 2
157 51 257 73 147 189 222 401 258 35 6 188 -1 254 -12z"/>
<path d="M5424 3671 c-2 -2 -4 -577 -4 -1278 l0 -1273 118 -1 c135 0 629 0
653 1 15 0 17 102 15 1277 l-1 1278 -388 0 c-214 0 -390 -2 -393 -4z"/>
</g>
</svg>
